<svg width="32" height="32" viewBox="0 0 32 32" fill="none" xmlns="http://www.w3.org/2000/svg">
<path d="M8.00016 28C7.62239 28 7.3055 27.872 7.0495 27.616C6.7935 27.36 6.66594 27.0436 6.66683 26.6667V23.9333C6.26683 23.4889 5.94461 22.9942 5.70016 22.4493C5.45572 21.9045 5.3335 21.3102 5.3335 20.6667V8.00001C5.3335 6.15556 6.18905 4.80534 7.90016 3.94934C9.61127 3.09334 12.3113 2.66578 16.0002 2.66667C19.8224 2.66667 22.5557 3.07778 24.2002 3.90001C25.8446 4.72223 26.6668 6.0889 26.6668 8.00001V20.6667C26.6668 21.3111 26.5446 21.9058 26.3002 22.4507C26.0557 22.9956 25.7335 23.4898 25.3335 23.9333V26.6667C25.3335 27.0445 25.2055 27.3613 24.9495 27.6173C24.6935 27.8733 24.3771 28.0009 24.0002 28H22.6668C22.2891 28 21.9722 27.872 21.7162 27.616C21.4602 27.36 21.3326 27.0436 21.3335 26.6667V25.3333H10.6668V26.6667C10.6668 27.0445 10.5388 27.3613 10.2828 27.6173C10.0268 27.8733 9.71039 28.0009 9.3335 28H8.00016ZM8.00016 13.3333H24.0002V9.33334H8.00016V13.3333ZM11.3335 21.3333C11.8891 21.3333 12.3615 21.1387 12.7508 20.7493C13.1402 20.36 13.3344 19.888 13.3335 19.3333C13.3335 18.7778 13.1388 18.3053 12.7495 17.916C12.3602 17.5267 11.8882 17.3325 11.3335 17.3333C10.7779 17.3333 10.3055 17.528 9.91616 17.9173C9.52683 18.3067 9.33261 18.7787 9.3335 19.3333C9.3335 19.8889 9.52816 20.3613 9.9175 20.7507C10.3068 21.14 10.7788 21.3342 11.3335 21.3333ZM20.6668 21.3333C21.2224 21.3333 21.6948 21.1387 22.0842 20.7493C22.4735 20.36 22.6677 19.888 22.6668 19.3333C22.6668 18.7778 22.4722 18.3053 22.0828 17.916C21.6935 17.5267 21.2215 17.3325 20.6668 17.3333C20.1113 17.3333 19.6388 17.528 19.2495 17.9173C18.8602 18.3067 18.6659 18.7787 18.6668 19.3333C18.6668 19.8889 18.8615 20.3613 19.2508 20.7507C19.6402 21.14 20.1122 21.3342 20.6668 21.3333Z" fill="#F88923"/>
</svg>
