<svg width="311" height="28" viewBox="0 0 311 28" fill="none" xmlns="http://www.w3.org/2000/svg">
<g clip-path="url(#clip0_1_11)">
<path d="M90.4998 26.9044H89.7589C85.6288 26.9044 81.4988 26.9044 77.3632 26.9166C77.0996 26.9211 76.8379 26.8773 76.5951 26.788C76.3524 26.6987 76.1341 26.566 75.9546 26.3985C70.7446 22.0536 65.5225 17.716 60.2881 13.3857C60.105 13.2318 59.9134 13.0876 59.5641 12.8115V26.1029C59.5641 26.9019 59.5641 26.9044 58.6288 26.9044C54.6171 26.9044 50.6044 26.9044 46.5908 26.9044H45.7598C45.7598 18.107 45.802 9.43668 45.802 0.646622C46.1457 0.624629 55.8369 0.646622 60.3923 0.63196C60.669 0.620125 60.9454 0.659798 61.2029 0.748313C61.4605 0.836828 61.6932 0.972135 61.8854 1.14514C66.5254 5.0722 71.1315 8.91128 75.7827 12.831C76.1146 13.0815 76.4306 13.3474 76.7293 13.6277C76.7816 13.4678 76.8175 13.3043 76.8364 13.1389C76.8364 9.27051 76.8025 5.2677 76.8025 1.40906C76.8025 0.509774 77.2561 0.624629 77.6928 0.627072C81.7777 0.641735 90.5223 0.644178 90.5223 0.644178C90.5223 0.644178 90.528 26.6478 90.4998 26.9044Z" fill="black"/>
<path d="M93.6189 0.602539C94.064 0.602539 110.97 0.602539 119.07 0.653857C123.152 0.685626 127.13 1.23058 130.902 2.65526C134.398 3.97243 137.08 5.88831 138.252 9.18488C139.063 11.4673 139.153 13.7791 138.815 16.1202C138.616 17.7629 137.964 19.34 136.917 20.7192C135.226 22.9015 132.843 24.2773 130.048 25.1766C126.175 26.4253 122.14 26.8872 118.036 26.8872C110.173 26.9116 102.307 26.8872 94.4444 26.9092C94.0528 26.9092 93.6696 26.8774 93.6696 26.8774C93.6696 26.8774 93.602 0.939772 93.6189 0.602539ZM107.465 13.7155C107.465 15.3211 107.48 16.929 107.465 18.537C107.465 18.9891 107.666 19.1577 108.17 19.1504C111.241 19.0991 114.314 19.1186 117.379 18.9891C119.073 18.8993 120.714 18.4422 122.152 17.6597C125.081 16.1226 125.149 12.2835 123.335 10.5729C121.766 9.10669 119.672 8.57884 117.509 8.46643C114.424 8.3027 111.325 8.34913 108.235 8.2856C107.657 8.27338 107.454 8.43466 107.463 8.9454C107.485 10.5411 107.465 12.1296 107.465 13.7155Z" fill="black"/>
<path d="M0.0338065 26.8605C0.0338065 26.8605 0 9.69829 0 1.59735C0 1.43363 0.014086 1.2699 0 1.10861C0 0.705397 0.197204 0.588098 0.684581 0.614979C0.893054 0.614979 20.5149 0.614979 30.1159 0.614979C32.6035 0.614979 34.9474 0.614979 37.5702 1.33343C39.2606 1.7733 40.6692 2.3598 41.7961 3.6012C43.6357 5.6637 43.7963 8.96273 41.7961 11.1401C41.18 11.7862 40.4251 12.3223 39.5733 12.7187C38.8468 13.0423 38.0934 13.3184 37.3195 13.5447C37.3195 13.6156 37.297 13.7084 37.297 13.7084C37.297 13.7084 38.19 13.8917 38.4718 13.9895C41.7482 15.1307 43.323 17.1223 43.3568 20.1892C43.3709 21.6139 43.3314 23.0386 43.3906 24.4632C43.4292 25.0685 43.556 25.6671 43.7681 26.2447C43.9202 26.6895 43.8921 26.907 43.2948 26.907C38.9056 26.907 34.5173 26.907 30.13 26.907C29.4511 26.907 29.3637 26.5184 29.3525 26.0981C29.3243 25.018 29.375 23.9403 29.3525 22.8626C29.3701 22.1627 29.2588 21.4648 29.0228 20.7952C28.6003 19.6882 27.6481 19.0846 26.6029 18.7474C26.0193 18.5515 25.4114 18.4153 24.7914 18.3417C24.0702 18.2831 23.3603 18.2928 22.6222 18.2709C19.9928 18.2578 17.3634 18.248 14.734 18.2415C14.0832 18.2415 13.8494 18.2415 13.8747 18.9233C13.9029 21.367 13.8747 26.863 13.8747 26.863L0.0338065 26.8605ZM14.5593 7.52582C14.0719 7.52582 13.8578 7.6871 13.8747 8.11476C13.9057 8.84787 13.8747 9.58099 13.8747 10.3141C13.8747 11.1327 13.9198 11.2452 14.8354 11.2452C18.4217 11.2452 21.9996 11.2623 25.5859 11.2452C26.2009 11.2338 26.8129 11.1658 27.4114 11.0423C27.8366 10.9607 28.2152 10.7519 28.4809 10.4526C28.7467 10.1533 28.8827 9.78251 28.8651 9.40504C28.8651 8.30048 27.9946 7.61624 26.6536 7.59669C24.6703 7.57469 16.599 7.54292 14.5593 7.52582Z" fill="black"/>
<path d="M139.882 17.7721C140.164 17.7574 140.311 17.7721 140.516 17.7721H154.926C155.284 17.7721 155.664 17.7403 155.729 18.1704C155.991 19.9128 157.538 20.4944 159.194 20.7778C161.254 21.1166 163.374 21.0666 165.409 20.6312C165.794 20.5441 166.165 20.416 166.513 20.25C166.816 20.1228 167.069 19.9219 167.241 19.6719C167.414 19.4219 167.499 19.1336 167.485 18.8424C167.452 18.1826 167.063 17.6474 166.325 17.491C165.154 17.2087 163.957 17.0181 162.747 16.9216C159.842 16.7726 156.918 16.6382 154.014 16.5697C150.3 16.4744 147.48 16.1274 144.522 14.7541C142.995 14.0527 141.663 13.1314 141.029 11.6945C139.944 9.23126 139.801 6.76066 141.449 4.41713C142.418 3.03643 143.984 2.26666 145.652 1.67283C148.243 0.768918 151.001 0.278011 153.794 0.223709C158.577 0.116185 163.367 0.116185 168.162 0.223709C171.077 0.288144 173.957 0.78915 176.675 1.7046C178.264 2.23489 179.749 2.92646 180.881 4.07501C182.067 5.27243 182.498 6.70934 182.572 8.24888C182.591 8.61789 182.394 8.77184 181.991 8.77184H181.216C176.757 8.77184 172.201 8.72785 167.73 8.74496C167.102 8.74496 166.97 8.69608 166.744 8.14136C166.544 7.65484 166.142 7.25006 165.618 7.00503C164.749 6.67869 163.825 6.47888 162.882 6.41365C160.945 6.18914 158.976 6.28701 157.081 6.70201C156.394 6.85841 155.805 7.23718 155.786 7.92387C155.766 8.61055 156.408 8.90136 157.053 9.10174C159.096 9.71267 160.13 9.50007 161.907 9.62226C164.203 9.73711 166.505 9.72489 168.801 9.81287C172.134 9.93994 175.43 10.1941 178.577 11.2791C181.918 12.4252 183.569 14.4755 183.628 17.5912C183.656 19.1137 183.555 20.5848 182.698 21.9533C181.608 23.6907 179.932 24.8271 177.867 25.5846C175.331 26.5132 172.649 26.9604 169.934 27.1828C167.978 27.3441 166.032 27.3514 164.079 27.3783C160.949 27.4199 157.817 27.3783 154.687 27.261C151.23 27.1144 147.818 26.5768 144.722 25.1423C141.57 23.6761 139.795 21.4499 139.846 18.2364C139.843 18.0946 139.863 17.9847 139.882 17.7721Z" fill="black"/>
<path d="M208.473 27.369C204.771 27.4521 201.01 27.2713 197.311 26.4893C194.277 25.8491 191.362 24.9498 188.998 23.095C187.711 22.1228 186.666 20.9331 185.927 19.5986C185.189 18.2641 184.771 16.8129 184.702 15.3337C184.586 13.4178 184.561 11.5117 185.127 9.63497C186.105 6.4337 188.392 4.15371 191.739 2.6386C194.753 1.28478 198.013 0.6543 201.368 0.314623C205.312 -0.0861473 209.256 -0.0494915 213.178 0.124013C217.824 0.329285 222.396 0.986646 226.419 3.17622C230.2 5.2265 232.188 8.25671 232.397 12.1398C232.498 14.0532 232.524 15.9642 231.91 17.8337C231.041 20.531 229.019 22.8392 226.255 24.2875C224.002 25.5094 221.494 26.1741 218.914 26.6628C215.516 27.308 212.048 27.4424 208.473 27.369ZM203.94 8.48398C202.289 8.84321 200.751 9.50301 199.822 10.8471C197.959 13.5351 199.284 17.2594 202.605 18.5326C204.026 19.0644 205.543 19.377 207.087 19.4563C209.651 19.6151 212.158 19.4563 214.502 18.4788C216.846 17.5013 218.08 15.7418 218.026 13.4398C217.976 11.1867 216.618 9.77426 214.364 8.89941C210.313 7.53093 205.428 8.16141 203.94 8.48398Z" fill="black"/>
<path d="M234.637 26.9042V0.58048C235.006 0.558487 257.315 0.612249 268.161 0.612249C268.725 0.612249 269.17 0.526719 269.17 1.40646C269.17 3.19852 269.17 4.99058 269.17 6.78264C269.17 7.58418 268.995 7.66971 268.19 7.66971H249.382C248.3 7.66971 248.207 7.50354 248.216 8.43215C248.216 10.1183 248.01 10.1281 250.03 10.1428C256.016 10.1867 262.003 10.1574 267.99 10.1428C268.646 10.1428 268.798 10.1916 268.79 10.7488C268.762 12.6011 268.79 14.4535 268.79 16.3083C268.79 17.1098 268.818 17.1513 267.874 17.1513H249.281C248.314 17.1513 248.309 17.1513 248.309 18.0115C248.309 20.7192 248.289 23.4268 248.309 26.1369C248.309 26.4448 248.309 26.9262 248.309 26.9262C248.309 26.9262 247.745 26.9262 247.379 26.9262C243.39 26.8969 239.398 26.9116 235.409 26.9116L234.637 26.9042Z" fill="black"/>
<path d="M291.054 0.521973C297.367 0.521973 303.678 0.605059 309.991 0.605059C311 0.605059 311.002 0.788338 311 1.41149C311 3.64993 311 5.8892 311 8.12927C311 8.69133 310.974 8.92593 310.101 8.92593H298.976C297.993 8.92593 297.917 8.92593 297.917 9.80567C297.917 15.1818 297.995 20.558 297.993 25.9342C297.993 26.9117 297.993 26.9117 296.866 26.9117H284.969C283.949 26.9117 284.028 26.9117 284.028 26.0344V9.72258C284.028 8.92837 283.938 8.92593 283.008 8.92593C279.275 8.92593 275.545 8.91371 271.812 8.92593C271.142 8.92593 270.914 8.75975 270.922 8.16837C270.956 5.88838 270.922 3.60839 270.936 1.32596C270.936 0.539079 270.973 0.592841 271.9 0.592841C278.286 0.605059 284.67 0.521973 291.054 0.521973Z" fill="black"/>
</g>
<defs>
<clipPath id="clip0_1_11">
<rect width="311" height="28" fill="white"/>
</clipPath>
</defs>
</svg>
