<svg width="45" height="45" viewBox="0 0 45 45" fill="none" xmlns="http://www.w3.org/2000/svg">
<path d="M17.8125 7.5H16.8281C16.5156 7.5 16.2188 7.53125 15.9375 7.59375C17.7187 9.65625 19.1012 11.9613 20.085 14.5088C21.0687 17.0563 21.5613 19.72 21.5625 22.5C21.5625 25.2813 21.07 27.9456 20.085 30.4931C19.1 33.0406 17.7175 35.345 15.9375 37.4063C16.2188 37.4688 16.5156 37.5 16.8281 37.5H17.8125C21.9688 37.5 25.5081 36.0394 28.4306 33.1181C31.3531 30.1969 32.8137 26.6575 32.8125 22.5C32.8125 18.3438 31.3519 14.8044 28.4306 11.8819C25.5094 8.95938 21.97 7.49875 17.8125 7.5ZM36.5625 22.5C36.5625 25.0938 36.07 27.5313 35.085 29.8125C34.1 32.0938 32.7644 34.0781 31.0781 35.7656C29.3906 37.4531 27.4062 38.7894 25.125 39.7744C22.8437 40.7594 20.4062 41.2513 17.8125 41.25C16.8125 41.25 15.7656 41.1563 14.6719 40.9688C13.5781 40.7813 12.5313 40.5156 11.5313 40.1719C11.1563 40.0156 10.8594 39.7731 10.6406 39.4444C10.4219 39.1156 10.3125 38.7488 10.3125 38.3438C10.3125 38.0625 10.3675 37.7969 10.4775 37.5469C10.5875 37.2969 10.7512 37.0938 10.9687 36.9375C13.1875 35.0938 14.8831 32.9144 16.0556 30.3994C17.2281 27.8844 17.8137 25.2513 17.8125 22.5C17.8125 19.75 17.2263 17.1169 16.0538 14.6006C14.8813 12.0844 13.1862 9.905 10.9687 8.0625C10.75 7.90625 10.5862 7.70313 10.4775 7.45313C10.3687 7.20313 10.3137 6.9375 10.3125 6.65625C10.3125 6.25 10.4219 5.8825 10.6406 5.55375C10.8594 5.225 11.1563 4.98313 11.5313 4.82813C12.5313 4.48438 13.5781 4.21875 14.6719 4.03125C15.7656 3.84375 16.8125 3.75 17.8125 3.75C20.4062 3.75 22.8437 4.24187 25.125 5.22563C27.4062 6.20938 29.3906 7.54563 31.0781 9.23438C32.7656 10.9219 34.1019 12.9063 35.0869 15.1875C36.0719 17.4688 36.5637 19.9063 36.5625 22.5Z" fill="#FF9E44"/>
</svg>
