<svg width="45" height="45" viewBox="0 0 45 45" fill="none" xmlns="http://www.w3.org/2000/svg">
<g clip-path="url(#clip0_4_1091)">
<path d="M20.3906 5.625V2.8125C20.3906 2.25306 20.6129 1.71653 21.0084 1.32095C21.404 0.925362 21.9406 0.703125 22.5 0.703125C23.0594 0.703125 23.596 0.925362 23.9916 1.32095C24.3871 1.71653 24.6094 2.25306 24.6094 2.8125V5.625C24.6094 6.18444 24.3871 6.72097 23.9916 7.11655C23.596 7.51214 23.0594 7.73438 22.5 7.73438C21.9406 7.73438 21.404 7.51214 21.0084 7.11655C20.6129 6.72097 20.3906 6.18444 20.3906 5.625ZM34.4531 22.5C34.4531 24.8641 33.7521 27.1751 32.4387 29.1408C31.1252 31.1065 29.2584 32.6385 27.0743 33.5432C24.8901 34.448 22.4867 34.6847 20.1681 34.2234C17.8494 33.7622 15.7195 32.6238 14.0479 30.9521C12.3762 29.2805 11.2378 27.1506 10.7766 24.8319C10.3153 22.5133 10.552 20.1099 11.4568 17.9257C12.3615 15.7416 13.8935 13.8748 15.8592 12.5613C17.8249 11.2479 20.1359 10.5469 22.5 10.5469C25.6692 10.5501 28.7076 11.8105 30.9485 14.0515C33.1895 16.2924 34.4499 19.3308 34.4531 22.5ZM30.2344 22.5C30.2344 20.9703 29.7808 19.4749 28.9309 18.203C28.081 16.9311 26.8731 15.9398 25.4598 15.3544C24.0465 14.769 22.4914 14.6158 20.9911 14.9142C19.4908 15.2127 18.1126 15.9493 17.031 17.031C15.9493 18.1126 15.2127 19.4908 14.9142 20.9911C14.6158 22.4914 14.769 24.0465 15.3544 25.4598C15.9398 26.8731 16.9311 28.081 18.203 28.9309C19.4749 29.7808 20.9703 30.2344 22.5 30.2344C24.5506 30.232 26.5165 29.4164 27.9665 27.9665C29.4164 26.5165 30.232 24.5506 30.2344 22.5ZM9.05449 12.0393C9.2507 12.2355 9.48364 12.3911 9.74001 12.4973C9.99638 12.6035 10.2711 12.6582 10.5486 12.6582C10.8261 12.6582 11.1009 12.6035 11.3573 12.4973C11.6136 12.3911 11.8466 12.2355 12.0428 12.0393C12.239 11.843 12.3946 11.6101 12.5008 11.3537C12.607 11.0974 12.6617 10.8226 12.6617 10.5451C12.6617 10.2676 12.607 9.99286 12.5008 9.73649C12.3946 9.48013 12.239 9.24719 12.0428 9.05098L9.9334 6.9416C9.53713 6.54533 8.99967 6.32271 8.43926 6.32271C7.87885 6.32271 7.34139 6.54533 6.94512 6.9416C6.54885 7.33787 6.32622 7.87533 6.32622 8.43574C6.32622 8.99615 6.54885 9.53361 6.94512 9.92988L9.05449 12.0393ZM9.05449 32.9572L6.94512 35.0666C6.7489 35.2628 6.59326 35.4958 6.48707 35.7521C6.38088 36.0085 6.32622 36.2833 6.32622 36.5607C6.32622 36.8382 6.38088 37.113 6.48707 37.3694C6.59326 37.6257 6.7489 37.8587 6.94512 38.0549C7.34139 38.4512 7.87885 38.6738 8.43926 38.6738C8.71675 38.6738 8.99152 38.6191 9.24788 38.5129C9.50425 38.4067 9.73718 38.2511 9.9334 38.0549L12.0428 35.9455C12.439 35.5492 12.6617 35.0118 12.6617 34.4514C12.6617 33.891 12.439 33.3535 12.0428 32.9572C11.6465 32.561 11.109 32.3383 10.5486 32.3383C9.98822 32.3383 9.45076 32.561 9.05449 32.9572ZM34.4531 12.6562C34.7302 12.6565 35.0046 12.6021 35.2607 12.4962C35.5168 12.3904 35.7495 12.2351 35.9455 12.0393L38.0549 9.92988C38.2511 9.73367 38.4067 9.50073 38.5129 9.24437C38.6191 8.988 38.6738 8.71323 38.6738 8.43574C38.6738 8.15826 38.6191 7.88348 38.5129 7.62712C38.4067 7.37075 38.2511 7.13781 38.0549 6.9416C37.8587 6.74539 37.6257 6.58974 37.3694 6.48355C37.113 6.37736 36.8382 6.32271 36.5607 6.32271C36.2833 6.32271 36.0085 6.37736 35.7521 6.48355C35.4958 6.58974 35.2628 6.74539 35.0666 6.9416L32.9572 9.05098C32.6605 9.34601 32.4582 9.72264 32.376 10.133C32.2939 10.5433 32.3357 10.9688 32.4961 11.3553C32.6565 11.7418 32.9282 12.0719 33.2767 12.3035C33.6251 12.5352 34.0347 12.658 34.4531 12.6562ZM35.9455 32.9607C35.5492 32.5645 35.0118 32.3418 34.4514 32.3418C33.891 32.3418 33.3535 32.5645 32.9572 32.9607C32.561 33.357 32.3383 33.8945 32.3383 34.4549C32.3383 35.0153 32.561 35.5528 32.9572 35.949L35.0666 38.0584C35.4629 38.4547 36.0003 38.6773 36.5607 38.6773C37.1212 38.6773 37.6586 38.4547 38.0549 38.0584C38.4512 37.6621 38.6738 37.1247 38.6738 36.5643C38.6738 36.0038 38.4512 35.4664 38.0549 35.0701L35.9455 32.9607ZM7.73438 22.5C7.73438 21.9406 7.51214 21.404 7.11655 21.0084C6.72097 20.6129 6.18444 20.3906 5.625 20.3906H2.8125C2.25306 20.3906 1.71653 20.6129 1.32095 21.0084C0.925362 21.404 0.703125 21.9406 0.703125 22.5C0.703125 23.0594 0.925362 23.596 1.32095 23.9916C1.71653 24.3871 2.25306 24.6094 2.8125 24.6094H5.625C6.18444 24.6094 6.72097 24.3871 7.11655 23.9916C7.51214 23.596 7.73438 23.0594 7.73438 22.5ZM22.5 37.2656C21.9406 37.2656 21.404 37.4879 21.0084 37.8834C20.6129 38.279 20.3906 38.8156 20.3906 39.375V42.1875C20.3906 42.7469 20.6129 43.2835 21.0084 43.6791C21.404 44.0746 21.9406 44.2969 22.5 44.2969C23.0594 44.2969 23.596 44.0746 23.9916 43.6791C24.3871 43.2835 24.6094 42.7469 24.6094 42.1875V39.375C24.6094 38.8156 24.3871 38.279 23.9916 37.8834C23.596 37.4879 23.0594 37.2656 22.5 37.2656ZM42.1875 20.3906H39.375C38.8156 20.3906 38.279 20.6129 37.8834 21.0084C37.4879 21.404 37.2656 21.9406 37.2656 22.5C37.2656 23.0594 37.4879 23.596 37.8834 23.9916C38.279 24.3871 38.8156 24.6094 39.375 24.6094H42.1875C42.7469 24.6094 43.2835 24.3871 43.6791 23.9916C44.0746 23.596 44.2969 23.0594 44.2969 22.5C44.2969 21.9406 44.0746 21.404 43.6791 21.0084C43.2835 20.6129 42.7469 20.3906 42.1875 20.3906Z" fill="#FF9E44"/>
</g>
<defs>
<clipPath id="clip0_4_1091">
<rect width="45" height="45" fill="white"/>
</clipPath>
</defs>
</svg>
